# 3ds Max Wavefront OBJ Exporter v0.99 - (c)2007 guruware
# File Created: 12.10.2021 10:21:52

mtllib Mur1.mtl

#
# object Box001
#

v  -78.7400 -0.0000 83.3869
v  -78.7400 -0.0000 76.6131
v  78.7400 -0.0000 76.6131
v  78.7400 -0.0000 83.3869
v  -78.7400 78.7402 83.3869
v  78.7400 78.7402 83.3869
v  78.7400 78.7402 76.6131
v  -78.7400 78.7402 76.6131
v  78.7400 31.9813 83.3869
v  -78.7400 31.9813 83.3869
v  78.7400 31.9813 76.6131
v  76.6946 -0.0040 74.4158
v  -76.6946 -0.0040 74.4158
v  -76.6946 29.8825 74.4158
v  76.6946 29.8825 74.4158
v  -78.7400 31.9813 76.6131
# 16 vertices

vn -0.5774 -0.5774 0.5774
vn -0.7204 -0.6331 -0.2831
vn 0.7204 -0.6331 -0.2831
vn 0.5774 -0.5774 0.5774
vn -0.5774 0.5774 0.5774
vn 0.5774 0.5774 0.5774
vn 0.5774 0.5774 -0.5774
vn -0.5774 0.5774 -0.5774
vn 0.7071 0.0000 0.7071
vn -0.7071 0.0000 0.7071
vn 0.7898 0.1453 -0.5959
vn 0.3109 -0.6280 -0.7134
vn -0.3109 -0.6280 -0.7134
vn -0.3149 0.3085 -0.8976
vn 0.3149 0.3085 -0.8976
vn -0.7898 0.1453 -0.5959
# 16 vertex normals

vt 0.0023 0.0901 0.0000
vt 0.0023 0.0472 0.0000
vt 0.9995 0.0472 0.0000
vt 0.9995 0.0901 0.0000
vt 0.0023 0.0005 0.0000
vt 0.9995 0.0005 0.0000
vt 0.9995 0.0434 0.0000
vt 0.0023 0.0434 0.0000
vt 0.2443 0.6904 0.0000
vt 0.7473 0.6904 0.0000
vt 0.7473 0.7925 0.0000
vt 0.2443 0.7925 0.0000
vt 0.7473 0.9419 0.0000
vt 0.2443 0.9419 0.0000
vt 0.5458 0.0920 0.0000
vt 0.5458 0.1349 0.0000
vt 0.3433 0.1349 0.0000
vt 0.3433 0.0920 0.0000
vt 0.0472 0.1349 0.0000
vt 0.0472 0.0920 0.0000
vt 0.1295 0.1779 0.0000
vt 0.9600 0.1779 0.0000
vt 0.9600 0.3397 0.0000
vt 0.1296 0.3397 0.0000
vt 0.1216 0.3739 0.0000
vt 0.9742 0.3739 0.0000
vt 0.9742 0.6271 0.0000
vt 0.1216 0.6271 0.0000
vt 0.0005 0.0920 0.0000
vt 0.0434 0.0920 0.0000
vt 0.0434 0.2946 0.0000
vt 0.0005 0.2946 0.0000
vt 0.0434 0.5907 0.0000
vt 0.0005 0.5907 0.0000
vt 0.1185 0.1660 0.0000
vt 0.9711 0.1660 0.0000
vt 0.9762 0.1780 0.0000
vt 0.9762 0.3511 0.0000
vt 0.9711 0.3562 0.0000
vt 0.1185 0.3562 0.0000
vt 0.1133 0.3511 0.0000
vt 0.1133 0.1780 0.0000
# 42 texture coords

o Box001
g Box001
usemtl wire_177027088
s 2
f 1/1/1 2/2/2 3/3/3 4/4/4 
s 4
f 5/5/5 6/6/6 7/7/7 8/8/8 
s 8
f 1/9/1 4/10/4 9/11/9 10/12/10 
f 10/12/10 9/11/9 6/13/6 5/14/5 
s 16
f 4/15/4 3/16/3 11/17/11 9/18/9 
f 9/18/9 11/17/11 7/19/7 6/20/6 
s 32
f 12/21/12 13/22/13 14/23/14 15/24/15 
f 11/25/11 16/26/16 8/27/8 7/28/7 
s 64
f 2/29/2 1/30/1 10/31/10 16/32/16 
f 16/32/16 10/31/10 5/33/5 8/34/8 
s off
f 3/35/3 2/36/2 13/22/13 12/21/12 
f 2/37/2 16/38/16 14/23/14 13/22/13 
f 16/39/16 11/40/11 15/24/15 14/23/14 
f 11/41/11 3/42/3 12/21/12 15/24/15 
# 14 polygons

